<svg width="40" height="40" viewBox="0 0 40 40" fill="none" xmlns="http://www.w3.org/2000/svg">
<path d="M32.0923 14.9745C32.0923 12.8652 30.5407 11.1683 28.6235 11.1683C26.0267 11.0469 23.3782 11 20.6717 11H19.8279C17.1279 11 14.4748 11.0469 11.8779 11.1687C9.96542 11.1687 8.41386 12.875 8.41386 14.9844C8.29667 16.6527 8.24698 18.3214 8.2498 19.9902C8.24511 21.6589 8.29823 23.3292 8.40917 25.0011C8.40917 27.1105 9.96073 28.8214 11.8732 28.8214C14.6014 28.948 17.3998 29.0042 20.2451 28.9995C23.0951 29.0089 25.8857 28.9495 28.617 28.8214C30.5342 28.8214 32.0857 27.1105 32.0857 25.0011C32.1982 23.3277 32.2498 21.6589 32.2451 19.9855C32.2557 18.3167 32.2048 16.6464 32.0923 14.9745ZM17.9529 24.5886V15.3777L24.7498 19.9808L17.9529 24.5886Z" fill="black"/>
</svg>
